<?xml version="1.0" encoding="UTF-8" standalone="no"?>
<!-- Generator: Adobe Illustrator 16.0.0, SVG Export Plug-In . SVG Version: 6.00 Build 0)  -->

<svg
   xmlns:dc="http://purl.org/dc/elements/1.1/"
   xmlns:cc="http://creativecommons.org/ns#"
   xmlns:rdf="http://www.w3.org/1999/02/22-rdf-syntax-ns#"
   xmlns:svg="http://www.w3.org/2000/svg"
   xmlns="http://www.w3.org/2000/svg"
   xmlns:sodipodi="http://sodipodi.sourceforge.net/DTD/sodipodi-0.dtd"
   xmlns:inkscape="http://www.inkscape.org/namespaces/inkscape"
   version="1.1"
   id="Capa_1"
   x="0px"
   y="0px"
   width="24.748px"
   height="24.748px"
   viewBox="0 0 24.748 24.748"
   style="enable-background:new 0 0 24.748 24.748;"
   xml:space="preserve"
   inkscape:version="0.48.5 r10040"
   sodipodi:docname="asterisk.svg"><metadata
     id="metadata41"><rdf:RDF><cc:Work
         rdf:about=""><dc:format>image/svg+xml</dc:format><dc:type
           rdf:resource="http://purl.org/dc/dcmitype/StillImage" /></cc:Work></rdf:RDF></metadata><defs
     id="defs39" /><sodipodi:namedview
     pagecolor="#ffffff"
     bordercolor="#666666"
     borderopacity="1"
     objecttolerance="10"
     gridtolerance="10"
     guidetolerance="10"
     inkscape:pageopacity="0"
     inkscape:pageshadow="2"
     inkscape:window-width="1232"
     inkscape:window-height="1003"
     id="namedview37"
     showgrid="false"
     inkscape:zoom="31.43941"
     inkscape:cx="11.817373"
     inkscape:cy="12.374"
     inkscape:window-x="48"
     inkscape:window-y="21"
     inkscape:window-maximized="1"
     inkscape:current-layer="Capa_1" /><g
     id="g3"
     style="fill:#009688;fill-opacity:1"><path
       d="M23.091,18.561c-0.37,0.644-1.042,1-1.734,1c-0.339,0-0.683-0.086-0.998-0.268l-5.982-3.455v6.91c0,1.104-0.896,2-2,2   c-1.104,0-2-0.896-2-2v-6.911l-5.985,3.456c-0.315,0.182-0.659,0.268-0.998,0.268c-0.691,0-1.364-0.356-1.734-1   c-0.552-0.957-0.225-2.18,0.732-2.73l5.983-3.456L2.39,8.919C1.433,8.366,1.106,7.145,1.658,6.188   C2.21,5.231,3.434,4.903,4.39,5.456l5.984,3.455V2c0-1.104,0.896-2,2-2c1.104,0,2,0.896,2,2v6.91l5.982-3.455   c0.956-0.553,2.183-0.225,2.732,0.732c0.552,0.957,0.225,2.18-0.732,2.731l-5.981,3.456l5.982,3.455   C23.314,16.381,23.643,17.604,23.091,18.561z"
       id="path5"
       style="fill:#009688;fill-opacity:1" /></g><g
     id="g7" /><g
     id="g9" /><g
     id="g11" /><g
     id="g13" /><g
     id="g15" /><g
     id="g17" /><g
     id="g19" /><g
     id="g21" /><g
     id="g23" /><g
     id="g25" /><g
     id="g27" /><g
     id="g29" /><g
     id="g31" /><g
     id="g33" /><g
     id="g35" /></svg>