<?xml version="1.0" encoding="utf-8"?>
<!-- Generator: Adobe Illustrator 16.0.0, SVG Export Plug-In . SVG Version: 6.00 Build 0)  -->
<!DOCTYPE svg PUBLIC "-//W3C//DTD SVG 1.1//EN" "http://www.w3.org/Graphics/SVG/1.1/DTD/svg11.dtd">
<svg version="1.1"
	 id="Capa_1" xmlns:dc="http://purl.org/dc/elements/1.1/" xmlns:cc="http://creativecommons.org/ns#" xmlns:rdf="http://www.w3.org/1999/02/22-rdf-syntax-ns#" xmlns:svg="http://www.w3.org/2000/svg" xmlns:sodipodi="http://sodipodi.sourceforge.net/DTD/sodipodi-0.dtd" xmlns:inkscape="http://www.inkscape.org/namespaces/inkscape" sodipodi:docname="asterisk.svg" inkscape:version="0.48.5 r10040"
	 xmlns="http://www.w3.org/2000/svg" xmlns:xlink="http://www.w3.org/1999/xlink" x="0px" y="0px" width="24.748px"
	 height="24.748px" viewBox="0 0 24.748 24.748" enable-background="new 0 0 24.748 24.748" xml:space="preserve">
<sodipodi:namedview  inkscape:cy="12.374" inkscape:cx="11.817373" inkscape:zoom="31.43941" showgrid="false" guidetolerance="10" gridtolerance="10" objecttolerance="10" bordercolor="#666666" pagecolor="#ffffff" borderopacity="1" id="namedview37" inkscape:current-layer="Capa_1" inkscape:window-maximized="1" inkscape:window-y="21" inkscape:window-x="48" inkscape:window-height="1003" inkscape:window-width="1232" inkscape:pageopacity="0" inkscape:pageshadow="2">
	</sodipodi:namedview>
<g id="g3">
	<path id="path5" d="M23.091,18.562c-0.369,0.644-1.042,1-1.734,1c-0.338,0-0.683-0.086-0.998-0.269l-5.981-3.455v6.91
		c0,1.104-0.896,2-2,2c-1.104,0-2-0.896-2-2v-6.911l-5.985,3.456c-0.315,0.183-0.659,0.269-0.998,0.269
		c-0.691,0-1.364-0.356-1.734-1c-0.552-0.957-0.225-2.181,0.732-2.73l5.983-3.456L2.39,8.919C1.433,8.366,1.106,7.145,1.658,6.188
		C2.21,5.231,3.434,4.903,4.39,5.456l5.984,3.455V2c0-1.104,0.896-2,2-2c1.104,0,2,0.896,2,2v6.91l5.982-3.455
		c0.955-0.553,2.183-0.225,2.731,0.732c0.552,0.957,0.226,2.18-0.731,2.731l-5.981,3.456l5.981,3.455
		C23.313,16.381,23.644,17.604,23.091,18.562z"/>
</g>
<g id="g7">
</g>
<g id="g9">
</g>
<g id="g11">
</g>
<g id="g13">
</g>
<g id="g15">
</g>
<g id="g17">
</g>
<g id="g19">
</g>
<g id="g21">
</g>
<g id="g23">
</g>
<g id="g25">
</g>
<g id="g27">
</g>
<g id="g29">
</g>
<g id="g31">
</g>
<g id="g33">
</g>
<g id="g35">
</g>
</svg>
