<?xml version="1.0" encoding="utf-8"?>
<!-- Generator: Adobe Illustrator 18.1.0, SVG Export Plug-In . SVG Version: 6.00 Build 0)  -->
<svg version="1.1" id="Capa_1" xmlns="http://www.w3.org/2000/svg" xmlns:xlink="http://www.w3.org/1999/xlink" x="0px" y="0px"
	 viewBox="21 69.7 654.3 654.3" enable-background="new 21 69.7 654.3 654.3" xml:space="preserve">
<g>
	<g id="user">
		<g>
			<path fill="#FFFFFF" d="M487.1,471.2c52.3-41.2,86-104.9,86-176.7c0-124.2-100.7-224.9-224.9-224.9S123.2,170.4,123.2,294.6
				c0,71.7,33.7,135.5,86,176.7C115.5,519,49.5,613.4,42.2,724h41C91,620.5,158.4,533.7,251,497.2c29.4,14.1,62.3,22.3,97.2,22.3
				c34.9,0,67.7-8.2,97.2-22.3c92.7,36.5,160,123.2,167.9,226.8h41C646.9,613.4,580.9,519,487.1,471.2z M348.2,478.6
				c-101.6,0-184-82.4-184-184c0-101.6,82.4-184,184-184s184,82.4,184,184C532.2,396.2,449.8,478.6,348.2,478.6z"/>
		</g>
	</g>
</g>
</svg>
