<?xml version="1.0" encoding="utf-8"?>
<!-- Generator: Adobe Illustrator 16.0.0, SVG Export Plug-In . SVG Version: 6.00 Build 0)  -->
<!DOCTYPE svg PUBLIC "-//W3C//DTD SVG 1.1//EN" "http://www.w3.org/Graphics/SVG/1.1/DTD/svg11.dtd">
<svg version="1.1" id="Capa_1" xmlns="http://www.w3.org/2000/svg" xmlns:xlink="http://www.w3.org/1999/xlink" x="0px" y="0px"
	 width="15px" height="15px" viewBox="0 0 15 15" enable-background="new 0 0 15 15" xml:space="preserve">
<g opacity="0.8">
	<g>
		<g>
			<path fill="#F4F4F4" d="M6.66,14.132c0.024-0.002,0.047-0.009,0.07-0.013C6.781,14.122,6.759,14.126,6.66,14.132z"/>
			<path fill="#F4F4F4" d="M13.832,4.907c-0.662-0.962-1.277-1.399-1.844-1.313c-0.047,0.013-1.019-1.761-1.019-1.761
				c-0.386-0.591-0.747-0.913-1.085-0.964C9.801,0.858,9.723,0.924,9.65,1.069c-0.072,0.184,0.959,2.292,0.936,2.306
				C10.141,3.272,9.6,1.501,8.82,1.21S8.67,2.103,8.693,2.155c0.301,0.705,0.518,1.217,0.65,1.539
				c0.3,0.744,0.242,0.885,0.278,1.333c0.011,0.102-0.053,0.192-0.19,0.267C9.295,5.37,9.177,5.39,9.08,5.352
				C8.646,5.16,8.328,5.012,8.123,4.909C3.34,3.799,2.336,6.353,1.781,7.624c-0.203,0.973-0.33,1.916-0.379,2.827
				c-0.013,0.04-0.039,0.063-0.082,0.079c-0.043,0.01-0.063,0.031-0.063,0.056c-0.324-0.281-0.799-0.878-0.969-0.878
				C0.096,9.707,0,9.907,0,10.305c0,0.461,0.564,1.377,1.239,1.84c0.108,0.077,0.232,0.073,0.37-0.01
				c0.139-0.085,0.231-0.105,0.281-0.067c0.372,0.347,0.674,0.603,0.903,0.769c0.097,0.131,0.194,0.252,0.289,0.367
				c0.134,0.168,0.24,0.271,0.325,0.309c0.326,0.143,0.826,0.251,1.5,0.328c0.603,0.078,1.744,0.272,1.822,0.277
				c0.191-0.027,0.333-0.125,0.419-0.296C7.257,13.603,7.25,13.43,7.131,13.3c-0.048-0.05-0.188-0.159-0.414-0.325
				c-0.182-0.131-0.518-0.219-0.518-0.271L5.92,12.58c0,0,0.012-0.006,0.033-0.02c0.364-0.218,3.522-2.15,1.891-3.051
				C7.539,9.365,7.216,9.278,7.008,9.23C6.938,9.217,6.869,9.202,6.791,9.191c0,0,0.086,0.014,0.216,0.041
				c0.36,0.076,0.636,0.169,0.836,0.279c0.898,0.427,1.977,1.129-1.042,2.97c0.19-0.089,0.587,0.013,0.707,0.013
				c0,0,2.331,0.392,2.439,0.637c0.205,0.502,0.638,0.799,1.301,0.889c0.277,0,0.463-0.102,0.561-0.307
				c0.084-0.169,0-0.369-0.254-0.598l-0.468-0.348c-0.181-0.127-0.3-0.263-0.361-0.403c-0.192-0.284-0.21-0.471-0.054-0.56
				c0.492-0.271,0.937-0.693,1.328-1.271c0.391-0.579,0.586-1.144,0.586-1.696c0.408,0.051,1.104-0.32,1.627-0.661
				C14.736,7.835,15,7.447,15,7.01C15,6.369,14.459,5.818,13.832,4.907z M12.354,5.736c-0.282,0-0.512-0.229-0.512-0.512
				s0.229-0.512,0.512-0.512s0.512,0.229,0.512,0.512C12.865,5.508,12.637,5.736,12.354,5.736z"/>
		</g>
	</g>
</g>
</svg>
